<svg viewBox="0 0 1024 1024" width="1024" height="1024" xmlns="http://www.w3.org/2000/svg">
  <g id="spirit">
    <!-- left ear: long, swept, fey -->
    <path d="M 366 348
             C 322 296 250 220 172 168
             C 226 178 330 226 452 264
             C 420 292 392 320 366 348 Z" fill="#B9EBDD"/>
    <!-- right ear -->
    <path d="M 658 348
             C 702 296 774 220 852 168
             C 798 178 694 226 572 264
             C 604 292 632 320 658 348 Z" fill="#B9EBDD"/>
    <!-- inner ears -->
    <path d="M 380 322 C 348 284 300 234 246 194 C 296 212 366 244 442 270 Z" fill="#6FC9B4"/>
    <path d="M 644 322 C 676 284 724 234 778 194 C 728 212 658 244 582 270 Z" fill="#6FC9B4"/>
    <!-- head + body, tail wisp curling to lower right -->
    <path d="M 512 196
             C 388 196 302 290 302 402
             C 302 476 322 532 352 572
             C 332 650 332 736 356 812
             C 380 878 448 908 512 908
             C 560 908 606 894 636 866
             C 662 902 706 922 758 918
             C 718 894 700 852 710 806
             C 726 730 716 646 672 574
             C 702 532 722 476 722 402
             C 722 290 636 196 512 196 Z" fill="#B9EBDD"/>
  </g>
</svg>
